<svg xmlns="http://www.w3.org/2000/svg" viewBox="0 0 512 512">
  <defs>
    <linearGradient id="bg" x1="0%" y1="0%" x2="100%" y2="100%">
      <stop offset="0%" stop-color="#6b3dff"/>
      <stop offset="55%" stop-color="#7b49ff"/>
      <stop offset="100%" stop-color="#9f7bff"/>
    </linearGradient>
    <linearGradient id="bgGloss" x1="0%" y1="0%" x2="100%" y2="100%">
      <stop offset="0%" stop-color="#ffffff" stop-opacity="0.32"/>
      <stop offset="100%" stop-color="#ffffff" stop-opacity="0"/>
    </linearGradient>
    <linearGradient id="book" x1="0%" y1="0%" x2="100%" y2="100%">
      <stop offset="0%" stop-color="#ffffff"/>
      <stop offset="100%" stop-color="#efe9ff"/>
    </linearGradient>
    <filter id="shadow" x="-20%" y="-20%" width="140%" height="140%">
      <feDropShadow dx="0" dy="10" stdDeviation="12" flood-color="#4a2bd6" flood-opacity="0.45"/>
    </filter>
  </defs>
  <rect x="10" y="10" width="492" height="492" rx="110" fill="url(#bg)"/>
  <path d="M56 40h400a96 96 0 0 1 96 96v120c-70-38-160-30-248 20-88 50-166 50-248 0V136a96 96 0 0 1 96-96z" fill="url(#bgGloss)"/>
  <g filter="url(#shadow)">
    <path d="M140 168c42-10 86-8 132 6v210c-48-16-94-18-132-6-18 6-32 18-32 30V192c0-12 14-20 32-24z" fill="url(#book)"/>
    <path d="M372 168c-42-10-86-8-132 6v210c48-16 94-18 132-6 18 6 32 18 32 30V192c0-12-14-20-32-24z" fill="url(#book)"/>
    <path d="M256 176v208" stroke="#e5dcff" stroke-width="6"/>
  </g>
  <text x="256" y="456" font-family="SF Pro Display, Helvetica, Arial, sans-serif" font-weight="600" font-size="64" fill="#ffffff" text-anchor="middle">Reader</text>
</svg>
