<svg xmlns="http://www.w3.org/2000/svg" viewBox="0 0 512 512">
  <defs>
    <radialGradient id="bg" cx="30%" cy="20%" r="95%">
      <stop offset="0%" stop-color="#17121e"/>
      <stop offset="55%" stop-color="#0f0c14"/>
      <stop offset="100%" stop-color="#07060a"/>
    </radialGradient>
    <linearGradient id="neon" x1="0%" y1="0%" x2="100%" y2="100%">
      <stop offset="0%" stop-color="#ff77c8"/>
      <stop offset="55%" stop-color="#ff4fb0"/>
      <stop offset="100%" stop-color="#9a6bff"/>
    </linearGradient>
    <filter id="glow" x="-40%" y="-40%" width="180%" height="180%">
      <feGaussianBlur stdDeviation="10" result="b"/>
      <feColorMatrix in="b" type="matrix" values="
        1 0 0 0 0
        0 0.3 1 0 0
        1 0 1 0 0
        0 0 0 1 0" result="c"/>
      <feMerge>
        <feMergeNode in="c"/>
        <feMergeNode in="SourceGraphic"/>
      </feMerge>
    </filter>
    <filter id="softShadow" x="-30%" y="-30%" width="160%" height="160%">
      <feDropShadow dx="0" dy="16" stdDeviation="16" flood-color="#000000" flood-opacity="0.55"/>
    </filter>
  </defs>

  <rect x="12" y="12" width="488" height="488" rx="110" fill="url(#bg)"/>

  <g filter="url(#softShadow)">
    <g filter="url(#glow)">
      <path d="M124 338V158c0-14 10-26 24-29 46-11 92-8 136 9 44-17 90-20 136-9 14 3 24 15 24 29v180"
            fill="none" stroke="url(#neon)" stroke-width="18" stroke-linecap="round" stroke-linejoin="round"/>
      <path d="M260 140v206" fill="none" stroke="url(#neon)" stroke-width="12" stroke-linecap="round"/>
      <path d="M124 338c0-18 20-32 45-32 34 0 66 8 91 19"
            fill="none" stroke="url(#neon)" stroke-width="18" stroke-linecap="round" stroke-linejoin="round"/>
      <path d="M444 338c0-18-20-32-45-32-34 0-66 8-91 19"
            fill="none" stroke="url(#neon)" stroke-width="18" stroke-linecap="round" stroke-linejoin="round"/>
    </g>
  </g>

  <text x="256" y="442"
        font-family="-apple-system, BlinkMacSystemFont, 'SF Pro Display', 'Segoe UI', Helvetica, Arial, sans-serif"
        font-weight="700"
        font-size="56"
        letter-spacing="2"
        fill="url(#neon)"
        text-anchor="middle">MOZIREADER</text>
</svg>
